<svg width="120" height="46" viewBox="0 0 120 46" fill="none" xmlns="http://www.w3.org/2000/svg">
<g clip-path="url(#clip0_5087_4364)">
<path d="M63.0424 19.5214C60.5272 13.9772 70.287 6.92788 74.1558 4.29297C68.3651 6.47595 56.5749 14.0781 58.338 21.5712C59.7794 27.7126 72.3885 29.4517 82.8627 28.2896C92.1253 27.2647 101.768 24.0326 107.58 19.6828C94.9162 26.7805 66.7691 27.6803 63.0466 19.5174L63.0424 19.5214Z" fill="#1E2247"/>
<path d="M109.975 17.4922C114.567 13.5338 116.811 9.14767 115.9 5.74206C115.177 3.00223 112.39 1.12995 108.074 0.435918C106.299 0.145392 104.11 0.000128838 102.931 -0.00390625C89.5702 0.0808306 73.9696 7.6103 70.9573 13.3159C69.5201 16.0557 71.3375 17.2622 74.1576 17.8635C80.2366 19.1789 87.1219 15.4989 89.8877 13.8082C86.5662 14.0059 79.2882 13.5459 80.8508 9.59557C82.5136 5.41925 93.9404 0.476269 102.885 1.32364C103.479 1.38416 113.982 1.98136 108.1 10.1807C102.885 17.5003 88.3043 22.3666 78.6239 22.4957C73.3513 22.7257 64.5692 21.8945 65.4549 15.8459C66.1902 10.915 74.2078 5.35066 75.6116 4.28136C75.3776 4.30153 75.1812 4.32171 75.1436 4.32574C67.594 9.46645 63.7461 13.9171 63.7461 17.3873C63.7461 20.8575 68.087 25.2557 83.955 24.7393C92.8165 24.4487 104.728 22.0559 109.975 17.4882V17.4922Z" fill="#DF6014"/>
<path d="M108.958 7.21465C109.414 6.07273 109.167 4.49097 107.379 3.41764C106.832 3.0908 102.771 0.633428 93.7336 2.78816C88.4526 4.05518 83.8945 6.52062 82.3068 8.78027C80.3306 11.6129 83.8736 12.775 84.6172 12.8678L84.6047 12.8517C84.4418 12.6418 84.3373 12.4078 84.2788 12.1657C83.7524 9.74466 88.8621 6.76676 95.6388 5.29395C99.9713 4.35378 107.939 4.0108 108.954 7.21869L108.958 7.21465Z" fill="#1E2247"/>
<path d="M2.98726 32.3286H1.17401C1.13223 32.5303 0.793817 34.0798 0.722791 34.3784H2.49008C2.49008 34.3784 0.0793817 45.3619 0 45.7251H3.63484C3.68498 45.4789 6.12492 34.3784 6.12492 34.3784H7.98412C8.0259 34.1726 8.3685 32.6352 8.43117 32.3286H6.60121L6.82264 31.2996C7.11928 29.9519 7.59975 29.2296 9.20409 29.2982C9.25423 29.0844 9.60936 27.4582 9.67203 27.1596C9.51744 27.1556 8.48548 27.1152 8.48548 27.1152C4.06935 27.1152 3.70587 28.8624 2.99144 32.3245L2.98726 32.3286Z" fill="#1E2247"/>
<path d="M11.3003 28.5684C11.2543 28.7822 10.7781 30.9491 10.707 31.2638H14.3419C14.3878 31.058 14.8641 28.8831 14.9351 28.5684H11.3003Z" fill="#1E2247"/>
<path d="M10.4767 32.3301C10.4266 32.5722 7.61063 45.3634 7.53125 45.7266H11.1619C11.2162 45.4925 14.0238 32.6932 14.1157 32.3301H10.4767Z" fill="#1E2247"/>
<path d="M24.9161 35.7869C24.4148 38.0748 26.2113 38.902 27.9493 39.6969C29.3908 40.3586 30.7486 40.9841 30.4311 42.4085C30.2013 43.4697 29.2947 43.9499 28.4967 43.9499C27.6987 43.9499 27.2098 43.7037 27.0553 43.1792C27.026 43.046 27.0051 42.9048 27.0051 42.7474C27.0051 42.4529 27.0761 42.0816 27.1764 41.6418H23.6293C23.4706 42.2471 23.3828 42.7797 23.3828 43.2437C23.3828 43.9014 23.5416 44.43 23.8633 44.8255C24.5025 45.6365 25.781 45.9916 28.0078 45.9916C31.1079 45.9916 33.5437 44.3695 34.0743 41.9404C34.6174 39.475 32.5702 38.5106 30.7611 37.6551C29.4492 37.0337 28.3087 36.4971 28.5343 35.4802C28.7557 34.4714 29.4242 33.8944 30.36 33.8944C30.7695 33.8944 31.1789 33.9348 31.4338 34.2495C31.5717 34.3948 31.6385 34.6207 31.6385 34.9516C31.6385 35.2099 31.5842 35.5488 31.5048 35.9564H35.0561C35.1564 35.569 35.2274 35.2018 35.2274 34.8588C35.2274 34.2657 35.0603 33.7572 34.7302 33.3376C34.0826 32.5144 32.8334 32.0625 31.1956 32.0625C29.913 32.0625 25.6765 32.3288 24.9078 35.7869H24.9161Z" fill="#1E2247"/>
<path d="M39.0092 30.2588C38.9758 30.4081 38.5538 32.3248 38.5538 32.3248H36.9453C36.9077 32.5346 36.5609 34.0801 36.5024 34.3746H38.1026L36.1682 43.1469C36.1097 43.4253 35.9509 44.3736 36.5609 45.0999C37.0623 45.6931 37.9605 45.9997 39.2181 45.9997L41.0105 45.8948C41.0105 45.8948 41.0857 45.8867 41.1609 45.8787C41.2068 45.6931 41.5452 44.1557 41.6163 43.8329C41.3865 43.849 41.1024 43.8732 41.1024 43.8732C40.5843 43.8732 40.2584 43.7683 40.0704 43.5424C39.9409 43.389 39.8949 43.2074 39.8949 42.9855C39.8949 42.7111 39.9618 42.3964 40.0412 42.0373L41.7332 34.3787H43.7846C43.8306 34.1769 44.1648 32.6274 44.2317 32.3288H42.1803C42.1803 32.3288 42.8738 29.1895 42.9825 28.6973C42.4978 28.8829 39.1471 30.2024 39.005 30.2629L39.0092 30.2588Z" fill="#1E2247"/>
<path d="M45.494 35.787C45.4355 36.0574 45.4104 36.2995 45.4104 36.5295C45.4104 38.2605 46.9855 38.9949 48.523 39.697C49.8224 40.2982 51.0549 40.8632 51.0549 42.0132C51.0549 42.1342 51.0382 42.2714 51.0006 42.4086C50.775 43.4698 49.8683 43.95 49.0787 43.95C48.2431 43.95 47.7877 43.7039 47.6331 43.1793C47.6039 43.0582 47.5913 42.913 47.5913 42.7516C47.5913 42.4489 47.6456 42.0777 47.7584 41.6379H44.2113C44.0526 42.2432 43.9648 42.7758 43.9648 43.2398C43.9648 43.8975 44.1236 44.4261 44.4453 44.8216C45.0887 45.6326 46.363 45.9877 48.594 45.9877C51.6941 45.9877 54.134 44.3656 54.6647 41.9365C55.2078 39.4711 53.1522 38.5067 51.3432 37.6512C50.0271 37.0298 48.8949 36.4932 49.1163 35.4763C49.3335 34.4675 50.0062 33.8905 50.9463 33.8905C51.3515 33.8905 51.761 33.9309 52.02 34.2456C52.1495 34.3909 52.2164 34.6168 52.2164 34.9477C52.2164 35.206 52.1704 35.5449 52.0868 35.9525H55.6339C55.7384 35.5651 55.8052 35.1979 55.8052 34.8549C55.8052 34.2618 55.6381 33.7533 55.3081 33.3337C54.6647 32.5105 53.4113 32.0586 51.7735 32.0586C50.4992 32.0586 46.2586 32.3249 45.494 35.783V35.787Z" fill="#1E2247"/>
<path d="M63.9084 32.0625C58.6818 32.0625 57.5412 35.2906 56.7473 38.8818C56.1666 41.545 55.9828 43.5706 56.9938 44.769C57.6749 45.5962 58.9157 45.9916 60.7707 45.9916C65.5295 45.9916 66.9834 43.4737 68.007 38.8213C68.4749 36.6948 68.7716 34.5481 67.7187 33.3053C67.021 32.462 65.7718 32.0625 63.9001 32.0625H63.9084ZM60.19 43.4697C59.7095 42.8927 59.768 41.67 60.449 38.6034C61.0548 35.8676 61.5102 34.189 63.3736 34.189C63.9168 34.189 64.3053 34.3343 64.5435 34.6207C65.1075 35.2865 64.8443 36.715 64.4139 38.6679C63.4823 42.8886 62.9057 43.8611 61.3139 43.8611C60.7666 43.8611 60.4156 43.7441 60.19 43.4657V43.4697Z" fill="#1E2247"/>
<path d="M78.5408 32.3301C78.4907 32.5722 76.4769 41.7117 76.4769 41.7117C76.222 42.8697 75.7917 43.9552 74.3628 43.9552C73.8698 43.9552 73.5231 43.822 73.3016 43.5597C73.1053 43.3338 73.0468 43.0271 73.0468 42.6922C73.0468 42.3573 73.1094 41.986 73.1846 41.6471C73.1846 41.6471 75.1566 32.6973 75.236 32.3341H71.6054C71.551 32.5803 69.2114 43.2087 69.2114 43.2087C69.1654 43.4185 69.1445 43.6243 69.1445 43.822C69.1445 44.3143 69.2991 44.746 69.5916 45.0971C70.072 45.6741 70.9244 46.001 71.9396 46.001C74.5508 46.0131 75.8586 44.6734 75.8586 44.6734C75.8586 44.6734 75.658 45.4522 75.5953 45.7346H79.3639C79.485 44.7783 79.6271 43.9269 79.7984 43.1441C79.7984 43.1441 82.0963 32.7013 82.1757 32.3381H78.5408V32.3301Z" fill="#1E2247"/>
<path d="M88.3187 33.9077C88.3187 33.9077 88.607 32.6366 88.6697 32.33H85.2312C85.1769 32.5721 82.3609 45.3633 82.2773 45.7265H85.9122C85.9623 45.4924 87.5291 38.3866 87.5291 38.3866C87.8048 37.1075 88.2727 34.9972 91.7781 35.1586C91.824 34.9326 92.3797 32.4268 92.4507 32.0717C90.1863 32.0112 88.3104 33.9037 88.3104 33.9037L88.3187 33.9077Z" fill="#1E2247"/>
<path d="M20.0606 33.9077C20.0606 33.9077 20.3405 32.6366 20.4074 32.33H16.9689C16.9188 32.5721 14.0986 45.3633 14.0234 45.7265H17.6541C17.7084 45.4924 19.2752 38.3866 19.2752 38.3866C19.5509 37.1075 20.0147 34.9972 23.52 35.1586C23.5701 34.9326 24.1216 32.4268 24.1968 32.0717C21.9282 32.0112 20.0564 33.9037 20.0564 33.9037L20.0606 33.9077Z" fill="#1E2247"/>
<path d="M91.9072 38.8821C91.3223 41.5452 91.1385 43.5708 92.1495 44.7692C92.8347 45.5924 94.084 45.9919 95.939 45.9919C99.6699 45.9919 101.868 44.3536 102.682 40.9843H99.0474C98.6171 42.8364 97.7021 43.8614 96.4738 43.8614C95.9223 43.8614 95.5755 43.7443 95.3499 43.4659C94.8611 42.8889 94.9279 41.6663 95.6006 38.5996C96.2064 35.8638 96.6701 34.1852 98.5335 34.1852C99.0975 34.1852 99.4986 34.3305 99.7326 34.617C99.9415 34.8631 100.042 35.2101 100.042 35.6984C100.042 36.0252 99.9874 36.4328 99.8955 36.9008H103.518C103.622 36.3924 103.689 35.9203 103.689 35.5007C103.689 34.6049 103.464 33.8907 103.008 33.3459C102.285 32.4905 100.961 32.0547 99.0641 32.0547C93.8416 32.0547 92.6969 35.2828 91.903 38.874L91.9072 38.8821Z" fill="#1E2247"/>
<path d="M116.135 35.7707C116.135 34.7983 115.947 33.963 115.437 33.3376C114.739 32.4781 113.478 32.0625 111.589 32.0625C106.362 32.0625 105.218 35.2906 104.436 38.8818C103.839 41.545 103.668 43.5706 104.67 44.769C105.364 45.5922 106.601 45.9916 108.456 45.9916C110.19 45.9916 111.71 45.5478 112.834 44.6964C113.891 43.9216 114.618 42.816 115.011 41.4199H111.334C110.942 43.0299 110.164 43.8611 108.99 43.8611C108.548 43.8611 108.209 43.7199 107.967 43.4334C107.687 43.0944 107.578 42.5941 107.578 42.0171C107.578 41.2786 107.75 40.4151 107.929 39.6081H115.516L115.546 39.479C115.863 38.1797 116.131 36.8885 116.131 35.7667L116.135 35.7707ZM108.414 37.405C108.673 36.259 109.137 34.1083 111.067 34.1083C111.623 34.1083 112.036 34.2616 112.295 34.5723C112.847 35.2381 112.583 36.4486 112.37 37.413L112.316 37.6471H108.355L108.41 37.4009L108.414 37.405Z" fill="#1E2247"/>
<path d="M119.015 34.536L118.639 33.9509C118.597 33.9509 118.526 33.9509 118.43 33.9428V34.536H118.242V33.1762C118.242 33.1762 118.301 33.1721 118.393 33.1681C118.485 33.1641 118.556 33.1641 118.593 33.1641C118.936 33.1641 119.103 33.2932 119.103 33.5555C119.103 33.6402 119.074 33.7128 119.023 33.7855C118.969 33.8541 118.898 33.8944 118.827 33.9146L119.237 34.54H119.015V34.536ZM118.434 33.3416V33.7855C118.485 33.7935 118.53 33.7935 118.572 33.7935C118.689 33.7935 118.773 33.7734 118.827 33.7411C118.877 33.7048 118.902 33.6402 118.902 33.5474C118.902 33.4707 118.877 33.4142 118.823 33.382C118.769 33.3497 118.677 33.3335 118.556 33.3335C118.535 33.3335 118.497 33.3376 118.439 33.3416H118.434Z" fill="#1E2247"/>
<path d="M117.25 33.8705C117.25 33.1361 117.864 32.543 118.625 32.543C119.385 32.543 119.999 33.1361 119.999 33.8705C119.999 34.6009 119.385 35.1981 118.625 35.1981C117.868 35.1981 117.25 34.6009 117.25 33.8705ZM117.367 33.8705C117.367 34.5403 117.927 35.0851 118.625 35.0851C119.322 35.0851 119.882 34.5403 119.882 33.8705C119.882 33.2007 119.318 32.6519 118.625 32.6519C117.927 32.6519 117.367 33.2007 117.367 33.8705Z" fill="#1E2247"/>
</g>
<defs>
<clipPath id="clip0_5087_4364">
<rect width="120" height="46" fill="white"/>
</clipPath>
</defs>
</svg>
